<svg width="1500" height="500" viewBox="0 0 1500 500" fill="none" xmlns="http://www.w3.org/2000/svg">
<path d="M526.435 211.875L523.105 219.46C523.105 220.2 523.413 221.187 524.03 222.42C524.647 223.53 525.202 224.085 525.695 224.085C529.518 222.852 531.43 221.803 531.43 220.94C531.43 220.693 532.848 219.768 535.685 218.165C538.522 216.562 539.94 214.773 539.94 212.8C539.94 212.307 539.693 211.628 539.2 210.765C538.707 209.902 538.46 208.977 538.46 207.99C538.46 207.003 538.83 205.523 539.57 203.55L540.495 200.775C540.495 199.048 539.632 196.952 537.905 194.485C536.178 192.018 534.575 190.785 533.095 190.785C531.615 190.785 530.012 191.463 528.285 192.82C526.558 194.053 525.633 194.978 525.51 195.595V195.965L526.435 211.875ZM526.065 266.45L525.325 276.81C525.325 279.153 525.633 281.25 526.25 283.1C526.99 284.95 527.73 285.875 528.47 285.875C529.457 285.875 531.245 285.567 533.835 284.95C536.548 284.21 538.337 283.47 539.2 282.73C540.433 281.497 541.728 279.4 543.085 276.44C544.442 273.357 545.12 271.26 545.12 270.15C545.12 268.917 544.133 267.128 542.16 264.785C540.187 262.442 539.2 260.962 539.2 260.345L540.68 254.055C540.68 252.698 539.57 251.403 537.35 250.17C535.253 248.813 533.65 248.135 532.54 248.135C531.43 248.135 529.95 249.43 528.1 252.02C526.373 254.487 525.51 256.09 525.51 256.83L526.065 264.785V266.45ZM575.46 283.1C572.747 284.703 571.39 286.245 571.39 287.725C571.39 289.082 572.253 290.993 573.98 293.46C573.98 294.323 572.5 296.112 569.54 298.825C566.703 301.538 564.175 303.697 561.955 305.3C559.735 306.78 556.158 308.568 551.225 310.665C546.415 312.762 542.777 313.81 540.31 313.81C537.967 313.81 534.082 312.823 528.655 310.85C523.228 309 520.33 308.075 519.96 308.075C519.59 308.075 518.357 309.185 516.26 311.405C514.163 313.748 512.498 314.92 511.265 314.92C507.072 314.92 501.707 312.947 495.17 309C488.757 305.053 485.55 302.34 485.55 300.86C485.55 300.613 485.982 299.503 486.845 297.53C489.312 291.857 490.545 284.21 490.545 274.59L490.175 266.265C490.175 266.142 490.607 265.895 491.47 265.525C494.307 264.415 495.725 262.873 495.725 260.9C495.725 258.927 494.677 257.077 492.58 255.35C490.607 253.623 489.62 252.637 489.62 252.39V252.205C490.483 249.492 490.915 244.805 490.915 238.145L490.36 214.65V212.06C490.36 211.32 489.867 210.21 488.88 208.73C488.017 207.25 487.585 206.078 487.585 205.215C487.585 204.228 488.387 202.687 489.99 200.59C491.593 198.493 492.395 196.767 492.395 195.41C492.395 194.053 490.915 190.97 487.955 186.16C485.118 181.35 483.7 178.883 483.7 178.76C483.7 177.157 486.167 174.937 491.1 172.1C496.033 169.14 499.795 167.66 502.385 167.66C507.812 164.947 511.943 163.59 514.78 163.59C515.89 163.59 517.617 165.687 519.96 169.88C522.427 174.073 523.845 176.17 524.215 176.17C524.585 176.17 526.312 175.245 529.395 173.395C538.398 167.968 544.997 165.255 549.19 165.255C553.507 165.255 558.748 167.167 564.915 170.99C571.082 174.69 574.165 177.65 574.165 179.87L571.76 182.275C570.157 183.878 569.355 185.482 569.355 187.085C569.355 188.442 570.527 189.428 572.87 190.045C575.337 190.538 576.57 190.908 576.57 191.155C576.57 202.872 573.733 211.567 568.06 217.24C566.703 218.597 564.607 220.2 561.77 222.05C559.057 223.9 556.898 225.627 555.295 227.23C553.815 228.71 553.075 230.437 553.075 232.41C553.568 234.26 554.185 235.185 554.925 235.185C555.172 235.185 556.59 234.507 559.18 233.15C561.893 231.67 564.237 230.93 566.21 230.93C566.95 230.93 568.553 232.41 571.02 235.37C573.61 238.207 576.138 242.338 578.605 247.765C581.195 253.192 582.49 257.817 582.49 261.64C582.49 265.463 582.058 269.41 581.195 273.48C580.332 277.55 579.9 279.893 579.9 280.51C579.9 281.003 579.592 281.435 578.975 281.805C577.495 282.668 576.323 283.1 575.46 283.1ZM624.362 220.94L622.697 243.14C622.697 251.033 623.005 259.728 623.622 269.225C624.362 278.722 624.732 283.717 624.732 284.21C624.732 284.58 624.239 285.32 623.252 286.43C622.389 287.54 621.957 288.65 621.957 289.76C621.957 290.747 623.252 293.46 625.842 297.9C628.555 302.34 629.912 305.362 629.912 306.965C629.912 307.212 629.234 307.643 627.877 308.26C624.054 309.863 621.895 311.097 621.402 311.96C620.415 313.563 617.764 314.797 613.447 315.66L611.227 316.215C608.76 316.215 604.505 315.352 598.462 313.625C592.419 312.022 589.397 310.912 589.397 310.295L590.692 297.9C590.692 297.777 591 297.283 591.617 296.42C593.22 293.83 594.022 291.733 594.022 290.13C594.022 290.007 593.467 289.02 592.357 287.17C591.247 285.32 590.692 283.963 590.692 283.1C590.692 282.113 590.754 281.497 590.877 281.25C591.124 281.003 591.74 280.695 592.727 280.325C593.837 279.832 594.515 279.462 594.762 279.215C595.749 277.242 596.242 275.885 596.242 275.145C596.242 274.035 594.084 272.617 589.767 270.89C590.137 269.41 590.322 266.882 590.322 263.305L589.952 253.315C589.952 252.822 590.692 251.958 592.172 250.725C592.295 250.602 592.357 248.875 592.357 245.545L591.617 211.32C591.617 210.827 592.419 209.963 594.022 208.73C595.625 207.373 596.427 205.832 596.427 204.105C596.427 203.242 595.502 202.502 593.652 201.885C591.925 201.268 591.062 200.837 591.062 200.59C591.062 193.437 590.754 187.578 590.137 183.015C589.52 178.452 589.212 175.923 589.212 175.43C589.212 174.813 589.459 174.258 589.952 173.765C590.569 173.148 593.775 171.422 599.572 168.585C605.369 165.748 609.562 164.33 612.152 164.33C614.865 164.33 618.072 164.638 621.772 165.255C625.472 165.748 627.322 166.365 627.322 167.105L623.252 179.13L623.067 181.905L624.362 207.805C624.362 209.285 624.3 210.087 624.177 210.21C620.724 213.047 618.997 215.267 618.997 216.87C618.997 218.473 619.86 219.522 621.587 220.015C623.437 220.508 624.362 220.817 624.362 220.94ZM641.404 233.15L640.109 230.19C640.109 229.327 642.945 226.305 648.619 221.125C654.415 215.822 658.054 212.862 659.534 212.245C668.907 210.272 675.259 209.285 678.589 209.285C678.959 209.285 680.624 209.963 683.584 211.32C686.544 212.677 688.332 213.478 688.949 213.725C689.565 213.848 690.737 215.02 692.464 217.24C694.19 219.337 695.054 220.632 695.054 221.125C694.437 224.578 693.882 226.305 693.389 226.305C685.619 226.675 680.439 227.6 677.849 229.08C676.615 229.697 674.149 232.04 670.449 236.11C666.872 240.057 664.529 243.14 663.419 245.36C662.432 247.457 661.939 254.302 661.939 265.895C665.515 267.498 667.304 269.287 667.304 271.26C665.947 277.057 665.269 280.387 665.269 281.25C665.269 281.99 665.762 283.408 666.749 285.505C667.735 287.602 668.722 289.143 669.709 290.13C671.559 291.117 673.039 291.61 674.149 291.61C675.382 291.61 676.184 291.425 676.554 291.055C679.514 288.095 680.994 283.038 680.994 275.885C680.994 274.282 680.87 272.617 680.624 270.89C678.404 268.793 677.294 266.45 677.294 263.86C677.294 263.49 677.849 262.812 678.959 261.825C680.069 260.715 680.624 259.543 680.624 258.31C680.624 257.077 680.13 255.72 679.144 254.24C678.157 252.76 677.17 251.65 676.184 250.91C675.197 250.047 674.704 249.492 674.704 249.245C674.704 247.642 676.615 244.682 680.439 240.365C684.385 236.048 687.16 233.89 688.764 233.89H691.354C701.837 233.89 707.079 234.568 707.079 235.925C706.462 239.255 706.154 241.167 706.154 241.66C706.154 242.153 707.264 244.497 709.484 248.69C711.704 252.883 712.814 256.892 712.814 260.715C709.607 263.305 708.004 265.217 708.004 266.45C708.004 267.56 708.62 268.67 709.854 269.78C711.087 270.89 711.704 271.507 711.704 271.63C711.704 272.74 711.21 275.268 710.224 279.215C709.237 283.038 708.744 285.998 708.744 288.095C708.744 290.192 705.784 294.2 699.864 300.12C694.19 305.547 690.429 308.26 688.579 308.26H688.394C687.777 307.767 686.79 307.52 685.434 307.52L683.399 307.705C681.549 307.705 680.192 308.938 679.329 311.405C678.959 312.515 678.527 313.255 678.034 313.625C677.664 314.118 676.184 314.365 673.594 314.365L657.869 313.07C654.785 312.207 651.27 310.11 647.324 306.78C643.5 303.45 641.589 301.353 641.589 300.49C641.589 300.367 642.205 299.565 643.439 298.085C644.672 296.482 645.289 295.31 645.289 294.57C645.289 293.337 644.487 292.165 642.884 291.055L636.409 291.98C635.792 291.98 635.114 290.377 634.374 287.17C632.524 280.263 631.599 270.767 631.599 258.68C631.599 256.953 633.017 252.513 635.854 245.36C638.69 238.207 640.54 234.198 641.404 233.335V233.15ZM747.591 259.42L746.851 263.49C746.851 263.86 747.283 264.538 748.146 265.525C749.133 266.388 749.564 266.82 749.441 266.82C749.318 268.793 749.256 271.013 749.256 273.48C749.256 275.947 749.441 277.488 749.811 278.105C751.908 280.078 753.326 281.065 754.066 281.065C754.929 281.065 756.409 280.202 758.506 278.475C760.726 276.625 761.836 275.577 761.836 275.33L760.726 272C759.863 269.903 759.431 267.622 759.431 265.155C759.431 264.908 760.048 264.292 761.281 263.305C762.514 262.318 763.131 261.64 763.131 261.27C763.131 259.913 762.638 258.248 761.651 256.275V256.09C762.021 254.98 762.206 253.5 762.206 251.65L761.651 239.995V239.255C762.391 237.405 762.761 236.11 762.761 235.37C762.761 234.507 762.021 233.582 760.541 232.595C758.814 232.595 756.779 233.582 754.436 235.555C752.216 237.528 750.859 238.7 750.366 239.07C749.996 239.317 749.811 241.105 749.811 244.435L750.551 254.055C750.551 255.535 750.428 256.398 750.181 256.645C748.824 258.002 747.961 258.927 747.591 259.42ZM794.211 296.975L794.026 302.155V302.71C794.026 302.833 793.224 303.635 791.621 305.115C790.141 306.595 789.401 308.075 789.401 309.555C789.401 310.048 790.141 310.788 791.621 311.775C793.224 312.885 794.026 313.563 794.026 313.81C794.026 322.813 792.978 330.46 790.881 336.75C790.141 338.97 789.524 340.203 789.031 340.45C787.921 341.19 785.516 343.287 781.816 346.74L779.966 348.59C778.116 351.427 774.169 354.263 768.126 357.1L764.981 358.395C764.734 358.395 764.056 357.532 762.946 355.805C761.959 354.202 761.219 353.4 760.726 353.4L757.211 354.695C756.348 355.558 755.423 357.47 754.436 360.43C753.819 361.047 751.168 361.417 746.481 361.54C743.028 361.787 739.636 362.157 736.306 362.65C733.963 362.65 731.743 361.355 729.646 358.765C728.783 357.285 727.549 355.99 725.946 354.88C724.589 353.523 723.233 348.96 721.876 341.19L721.321 337.305C721.321 336.195 722.554 334.037 725.021 330.83C727.488 327.623 728.906 325.835 729.276 325.465C729.769 325.218 730.139 325.095 730.386 325.095L730.941 325.28C732.791 327.377 735.628 329.412 739.451 331.385C743.398 333.482 746.234 334.53 747.961 334.53C749.811 334.53 752.709 332.618 756.656 328.795C760.726 324.972 762.761 322.073 762.761 320.1L761.281 305.115C761.281 304.375 762.144 303.08 763.871 301.23C765.598 299.257 766.461 297.962 766.461 297.345C766.461 296.605 765.721 295.495 764.241 294.015C762.514 294.138 759.924 296.112 756.471 299.935C753.018 303.635 750.859 306.533 749.996 308.63C749.749 309.247 746.789 309.555 741.116 309.555H738.341C736.244 309.555 732.544 306.595 727.241 300.675C722.061 294.755 719.471 290.377 719.471 287.54C720.951 286.183 721.691 284.827 721.691 283.47C721.691 282.113 720.828 280.572 719.101 278.845C718.484 278.228 717.868 276.317 717.251 273.11C716.758 269.78 716.511 267.375 716.511 265.895C716.511 262.318 717.189 256.707 718.546 249.06L719.101 245.36C719.101 245.237 719.224 245.175 719.471 245.175H720.026C721.383 245.175 722.431 244.805 723.171 244.065L725.761 240.18C725.761 239.563 725.083 238.577 723.726 237.22C722.369 235.74 721.691 234.815 721.691 234.445C721.691 233.335 724.528 229.82 730.201 223.9C735.998 217.98 739.698 215.02 741.301 215.02C744.261 215.02 748.269 214.218 753.326 212.615C758.383 211.012 762.329 210.21 765.166 210.21C765.536 210.21 766.276 211.567 767.386 214.28C768.496 216.87 769.914 218.165 771.641 218.165C772.258 218.165 773.121 217.24 774.231 215.39C775.464 213.417 776.266 212.43 776.636 212.43C777.376 212.43 779.781 211.628 783.851 210.025C787.921 208.422 790.634 207.62 791.991 207.62C793.348 207.62 794.951 208.175 796.801 209.285C798.774 210.395 799.761 211.258 799.761 211.875V212.06C797.664 215.267 795.814 219.707 794.211 225.38C792.731 231.053 791.991 235.678 791.991 239.255C793.841 240.858 794.766 242.03 794.766 242.77V242.955C794.273 245.175 793.656 251.157 792.916 260.9C792.299 270.52 791.991 276.81 791.991 279.77C791.991 282.73 792.053 284.272 792.176 284.395C793.533 285.752 794.211 289.945 794.211 296.975ZM917.315 247.765C917.069 247.642 916.884 247.58 916.76 247.58C912.567 245.853 907.387 244.99 901.22 244.99C895.177 244.99 890.367 245.607 886.79 246.84C881.117 248.813 878.28 251.403 878.28 254.61C878.28 256.213 879.822 257.015 882.905 257.015C883.399 257.015 884.509 256.892 886.235 256.645H886.42C886.914 256.645 887.16 257.94 887.16 260.53L886.975 264.785C886.359 273.295 886.05 279.462 886.05 283.285C886.05 286.985 886.605 290.685 887.715 294.385L889.38 299.935C889.38 300.305 889.195 300.613 888.825 300.86C887.839 301.23 885.804 302.402 882.72 304.375C875.197 309.185 869.77 311.59 866.44 311.59C863.234 311.59 860.212 311.158 857.375 310.295C854.662 309.555 852.504 308.753 850.9 307.89C849.297 307.027 848.495 306.41 848.495 306.04C848.495 305.423 849.112 303.388 850.345 299.935C851.702 296.358 852.38 293.09 852.38 290.13C852.38 289.513 851.764 288.835 850.53 288.095C849.297 287.232 848.68 286.245 848.68 285.135C848.68 284.025 849.05 282.483 849.79 280.51C850.654 278.537 851.085 277.488 851.085 277.365V276.625L850.9 267.375C850.9 265.772 851.024 262.503 851.27 257.57V256.83L851.455 253.5C851.455 250.91 851.209 248.32 850.715 245.73C850.345 243.14 850.16 241.783 850.16 241.66C850.16 241.537 851.147 240.612 853.12 238.885C855.094 237.158 856.08 235.802 856.08 234.815C856.08 233.828 855.895 233.088 855.525 232.595C855.155 231.978 854.662 231.547 854.045 231.3C853.552 230.93 853.059 230.622 852.565 230.375C851.209 229.758 850.53 229.388 850.53 229.265C851.147 223.098 851.455 218.843 851.455 216.5L850.9 196.15C852.38 194.177 853.12 192.943 853.12 192.45C853.12 191.957 852.565 191.155 851.455 190.045C850.345 189.428 849.297 186.962 848.31 182.645C847.447 178.328 847.015 175.122 847.015 173.025C847.015 172.162 850.777 171.298 858.3 170.435C865.824 169.448 869.585 168.585 869.585 167.845C870.202 167.475 871.004 167.29 871.99 167.29C872.977 167.29 875.752 167.537 880.315 168.03C884.879 168.523 887.407 169.017 887.9 169.51L888.64 171.36C889.134 172.47 889.997 173.025 891.23 173.025C892.464 173.025 895.855 172.285 901.405 170.805C906.955 169.325 911.889 168.585 916.205 168.585L923.42 167.105C929.71 168.338 933.04 169.078 933.41 169.325C933.657 169.818 933.78 171.052 933.78 173.025C933.78 174.875 933.534 177.157 933.04 179.87V180.24C930.204 191.587 928.107 197.938 926.75 199.295C925.394 200.652 922.68 201.33 918.61 201.33C914.664 201.207 912.69 200.467 912.69 199.11V198.555C912.69 195.472 911.765 193.067 909.915 191.34C908.065 189.49 905.537 188.565 902.33 188.565C899.247 188.565 895.485 189.552 891.045 191.525C886.605 193.498 884.385 195.04 884.385 196.15C884.385 196.397 885.002 197.075 886.235 198.185C887.592 199.172 888.27 200.097 888.27 200.96C888.27 201.823 888.024 202.563 887.53 203.18C886.79 204.29 886.42 207.312 886.42 212.245C886.42 217.178 886.729 219.953 887.345 220.57C887.962 221.187 890.182 221.495 894.005 221.495L921.385 220.755C923.729 220.755 925.024 220.94 925.27 221.31C925.64 221.557 925.825 223.345 925.825 226.675C925.825 230.005 924.777 234.383 922.68 239.81C920.584 245.113 918.857 247.765 917.5 247.765H917.315ZM973.766 220.94L972.101 243.14C972.101 251.033 972.41 259.728 973.026 269.225C973.766 278.722 974.136 283.717 974.136 284.21C974.136 284.58 973.643 285.32 972.656 286.43C971.793 287.54 971.361 288.65 971.361 289.76C971.361 290.747 972.656 293.46 975.246 297.9C977.96 302.34 979.316 305.362 979.316 306.965C979.316 307.212 978.638 307.643 977.281 308.26C973.458 309.863 971.3 311.097 970.806 311.96C969.82 313.563 967.168 314.797 962.851 315.66L960.631 316.215C958.165 316.215 953.91 315.352 947.866 313.625C941.823 312.022 938.801 310.912 938.801 310.295L940.096 297.9C940.096 297.777 940.405 297.283 941.021 296.42C942.625 293.83 943.426 291.733 943.426 290.13C943.426 290.007 942.871 289.02 941.761 287.17C940.651 285.32 940.096 283.963 940.096 283.1C940.096 282.113 940.158 281.497 940.281 281.25C940.528 281.003 941.145 280.695 942.131 280.325C943.241 279.832 943.92 279.462 944.166 279.215C945.153 277.242 945.646 275.885 945.646 275.145C945.646 274.035 943.488 272.617 939.171 270.89C939.541 269.41 939.726 266.882 939.726 263.305L939.356 253.315C939.356 252.822 940.096 251.958 941.576 250.725C941.7 250.602 941.761 248.875 941.761 245.545L941.021 211.32C941.021 210.827 941.823 209.963 943.426 208.73C945.03 207.373 945.831 205.832 945.831 204.105C945.831 203.242 944.906 202.502 943.056 201.885C941.33 201.268 940.466 200.837 940.466 200.59C940.466 193.437 940.158 187.578 939.541 183.015C938.925 178.452 938.616 175.923 938.616 175.43C938.616 174.813 938.863 174.258 939.356 173.765C939.973 173.148 943.18 171.422 948.976 168.585C954.773 165.748 958.966 164.33 961.556 164.33C964.27 164.33 967.476 164.638 971.176 165.255C974.876 165.748 976.726 166.365 976.726 167.105L972.656 179.13L972.471 181.905L973.766 207.805C973.766 209.285 973.705 210.087 973.581 210.21C970.128 213.047 968.401 215.267 968.401 216.87C968.401 218.473 969.265 219.522 970.991 220.015C972.841 220.508 973.766 220.817 973.766 220.94ZM1028.17 269.965L1028.73 260.715C1028.73 259.852 1028.61 259.42 1028.36 259.42C1026.76 259.42 1023.98 260.407 1020.03 262.38C1016.21 264.353 1014.3 266.08 1014.3 267.56C1015.29 269.163 1015.78 270.458 1015.78 271.445C1015.78 272.308 1015.59 272.925 1015.22 273.295C1013.74 273.912 1013 274.898 1013 276.255C1013 277.488 1013.81 278.968 1015.41 280.695C1017.14 282.298 1018.55 283.1 1019.66 283.1C1020.77 283.1 1022.69 282.052 1025.4 279.955C1028.11 277.735 1029.47 276.132 1029.47 275.145L1029.28 274.775C1028.54 274.035 1028.17 272.432 1028.17 269.965ZM1058.51 262.01L1059.44 276.07C1059.44 277.18 1059.32 277.735 1059.07 277.735C1055 280.202 1052.96 283.1 1052.96 286.43C1052.96 287.417 1053.89 288.28 1055.74 289.02L1058.51 290.13L1059.99 299.935L1063.32 306.04C1063.32 306.287 1062.77 306.78 1061.66 307.52C1058.45 309.863 1055.99 311.035 1054.26 311.035C1051.42 311.035 1048.22 312.083 1044.64 314.18L1042.97 315.105H1042.6C1040.63 315.105 1036.68 313.995 1030.76 311.775L1027.8 310.665C1027.56 310.418 1027.43 309.863 1027.43 309L1027.99 300.305V299.565L1025.58 298.825C1025.21 298.825 1024.54 299.503 1023.55 300.86C1021.95 302.957 1018.06 306.04 1011.89 310.11L1008.75 312.145C1005.17 312.145 1001.6 311.035 998.019 308.815C994.565 306.595 991.914 304.498 990.064 302.525C988.214 300.428 987.289 299.257 987.289 299.01C987.289 298.763 987.535 298.455 988.029 298.085C989.262 296.975 989.879 295.803 989.879 294.57C989.879 292.35 987.659 290.685 983.219 289.575L981.184 289.02C981.184 283.47 981.677 278.105 982.664 272.925C983.774 267.745 984.822 263.983 985.809 261.64L987.474 257.94C988.954 255.967 993.64 252.883 1001.53 248.69C1009.43 244.497 1015.84 242.4 1020.77 242.4C1021.14 242.4 1021.76 242.832 1022.62 243.695C1023.61 244.435 1024.41 244.805 1025.03 244.805C1025.77 244.805 1026.63 244.497 1027.62 243.88C1029.72 242.77 1030.76 241.845 1030.76 241.105C1030.76 239.255 1029.9 236.85 1028.17 233.89C1026.82 232.533 1022.44 231.485 1015.04 230.745L1011.34 230.375C1008.87 230.375 1005.42 231.3 1000.98 233.15C996.539 234.877 994.195 235.74 993.949 235.74C993.702 235.74 993.085 235 992.099 233.52C991.112 232.04 990.619 230.992 990.619 230.375C990.619 229.635 991.729 227.107 993.949 222.79C996.292 218.35 997.895 215.822 998.759 215.205C1000.24 214.342 1004.8 212.862 1012.45 210.765C1020.1 208.668 1025.58 207.62 1028.91 207.62C1034.34 211.197 1039.09 213.478 1043.16 214.465C1047.35 215.328 1051.36 217.178 1055.18 220.015C1059.01 222.728 1060.92 225.442 1060.92 228.155C1060.92 228.402 1060.3 229.697 1059.07 232.04C1057.96 234.383 1057.4 236.295 1057.4 237.775C1057.4 239.255 1057.71 240.55 1058.33 241.66L1059.44 243.325C1059.44 249.492 1059.25 253.007 1058.88 253.87C1057.53 256.583 1056.85 258.063 1056.85 258.31L1058.51 260.9V262.01ZM1101.45 268.115L1101.64 264.785C1101.64 263.798 1101.39 263.305 1100.9 263.305C1097.69 263.305 1095.41 263.86 1094.05 264.97C1092.7 266.08 1091.83 266.635 1091.46 266.635C1091.09 266.635 1090.04 266.512 1088.32 266.265C1086.59 266.018 1085.73 265.772 1085.73 265.525L1085.17 263.49C1084.31 262.627 1081.78 262.195 1077.59 262.195C1073.52 262.072 1071.17 261.702 1070.56 261.085C1068.58 259.235 1067.6 256.028 1067.6 251.465C1067.6 246.902 1068.4 241.228 1070 234.445C1071.61 227.662 1072.96 223.653 1074.07 222.42C1075.31 221.187 1078.82 219.398 1084.62 217.055C1090.41 214.712 1093.37 213.478 1093.5 213.355C1094.98 211.382 1096.03 210.087 1096.64 209.47C1103.8 207.497 1110.02 206.51 1115.33 206.51C1121.99 207.003 1125.63 207.25 1126.24 207.25C1126.61 207.25 1127.54 208.36 1129.02 210.58C1133.09 216.993 1135.12 222.112 1135.12 225.935C1135.12 226.552 1134.32 227.908 1132.72 230.005C1131.24 231.978 1130.31 232.965 1129.94 232.965L1128.28 231.67C1124.82 229.45 1120.75 228.34 1116.07 228.34C1113.85 228.34 1110.27 229.882 1105.34 232.965C1100.53 235.925 1098.12 238.7 1098.12 241.29C1098.74 244.373 1099.66 245.915 1100.9 245.915C1105.09 242.832 1107.93 241.29 1109.41 241.29C1111.01 241.29 1114.16 241.968 1118.84 243.325C1123.65 244.682 1126.43 245.73 1127.17 246.47C1137.28 256.583 1142.34 263.243 1142.34 266.45C1142.34 269.533 1141.54 274.22 1139.93 280.51C1138.45 286.677 1137.34 289.76 1136.6 289.76H1136.42C1133.58 289.76 1131.3 290.685 1129.57 292.535C1129.08 293.028 1128.83 293.707 1128.83 294.57C1128.83 295.31 1129.33 296.235 1130.31 297.345C1131.42 298.455 1131.98 299.072 1131.98 299.195C1131.73 301.292 1128.22 304.313 1121.43 308.26C1114.77 312.083 1109.35 313.995 1105.15 313.995C1104.66 313.995 1103.98 313.502 1103.12 312.515C1102.38 311.528 1101.39 311.035 1100.16 311.035C1099.05 311.035 1097.69 311.59 1096.09 312.7L1093.68 314.18C1088.38 314.18 1083.57 313.255 1079.25 311.405C1075.06 309.678 1072.41 308.137 1071.3 306.78C1069.94 305.547 1068.71 303.758 1067.6 301.415C1066.61 299.072 1066.12 297.283 1066.12 296.05L1067.97 293.83C1071.79 289.513 1073.7 285.505 1073.7 281.805C1073.7 281.435 1074.5 280.818 1076.11 279.955C1077.71 279.092 1078.64 278.66 1078.88 278.66C1079.25 278.66 1080.05 279.338 1081.29 280.695C1084.86 284.888 1088.69 286.985 1092.76 286.985C1093.87 286.985 1095.04 286.738 1096.27 286.245C1097.63 285.628 1098.8 285.32 1099.79 285.32C1102.62 285.32 1105.15 284.457 1107.37 282.73C1109.47 280.633 1110.76 277.735 1111.26 274.035C1111.26 272.802 1110.02 271.63 1107.56 270.52C1105.09 269.41 1103.12 268.855 1101.64 268.855C1101.51 268.855 1101.45 268.608 1101.45 268.115ZM1216.87 277.365L1221.49 276.625L1222.05 276.81C1222.3 277.057 1223.1 280.88 1224.45 288.28C1225.81 295.557 1226.74 299.442 1227.23 299.935C1231.05 304.375 1232.96 306.965 1232.96 307.705C1232.96 308.445 1232.47 309 1231.48 309.37C1230.62 309.863 1229.51 310.357 1228.15 310.85C1226.92 311.467 1225.93 312.083 1225.19 312.7C1224.58 313.44 1222.6 314.242 1219.27 315.105C1216.07 316.092 1213.91 316.585 1212.8 316.585C1211.69 316.585 1208.42 315.722 1202.99 313.995C1197.57 312.268 1194.85 311.035 1194.85 310.295L1193.56 299.565L1195.59 297.53C1197.07 296.05 1197.81 294.508 1197.81 292.905C1197.81 292.165 1195.96 291.425 1192.26 290.685C1191.15 289.575 1190.29 283.347 1189.67 272L1189.49 266.45C1189.49 266.203 1190.04 265.278 1191.15 263.675C1192.26 262.072 1192.82 260.715 1192.82 259.605C1192.82 257.755 1191.4 256.583 1188.56 256.09C1187.95 256.09 1186.1 257.878 1183.01 261.455C1181.41 263.058 1180.61 267.313 1180.61 274.22L1180.98 282.73C1180.98 283.347 1180.36 284.21 1179.13 285.32C1177.9 286.43 1177.28 287.478 1177.28 288.465C1177.28 289.452 1178.64 291.055 1181.35 293.275C1181.23 293.522 1181.16 294.077 1181.16 294.94L1182.09 304.93C1182.09 305.3 1181.66 305.67 1180.79 306.04C1177.96 307.52 1175.37 309.123 1173.02 310.85C1170.68 312.577 1168.03 313.44 1165.07 313.44C1162.11 313.44 1160.14 313.317 1159.15 313.07C1158.16 312.823 1156.5 312.577 1154.15 312.33C1147.74 311.713 1144.53 310.912 1144.53 309.925L1148.05 300.12L1149.71 275.885C1149.71 275.515 1150.58 275.022 1152.3 274.405C1154.03 273.665 1154.89 272.863 1154.89 272C1154.89 270.273 1152.74 268.423 1148.42 266.45C1148.17 266.203 1148.05 264.6 1148.05 261.64L1148.79 240.735L1149.9 239.44C1150.15 239.193 1150.27 237.837 1150.27 235.37L1148.97 205.955C1148.97 204.845 1149.04 204.228 1149.16 204.105C1152 202.748 1153.41 201.7 1153.41 200.96V200.775L1153.6 199.665C1153.6 198.432 1152.86 197.815 1151.38 197.815C1150.39 197.815 1149.78 196.767 1149.53 194.67C1149.28 192.573 1149.04 189.49 1148.79 185.42C1148.67 181.227 1148.23 177.65 1147.49 174.69V174.505C1147.49 173.395 1150.33 171.237 1156 168.03C1161.8 164.823 1165.44 163.22 1166.92 163.22C1178.14 163.22 1183.75 164.083 1183.75 165.81C1181.78 176.17 1180.79 183.878 1180.79 188.935C1180.79 189.305 1179.81 190.292 1177.83 191.895C1175.98 193.498 1175.06 194.608 1175.06 195.225C1175.06 195.842 1175.31 196.458 1175.8 197.075C1176.42 197.568 1177.16 198 1178.02 198.37C1178.88 198.74 1179.56 198.987 1180.05 199.11C1180.55 199.233 1180.79 199.418 1180.79 199.665C1179.68 206.942 1179.13 218.535 1179.13 234.445C1180.61 236.418 1181.78 237.405 1182.64 237.405C1184 237.405 1186.9 234.383 1191.34 228.34C1195.78 222.173 1198 217.61 1198 214.65C1198 214.033 1200.77 212.862 1206.32 211.135C1212 209.408 1215.45 208.545 1216.68 208.545C1225.07 208.792 1229.26 209.223 1229.26 209.84C1229.26 214.65 1228.96 217.302 1228.34 217.795C1224.39 219.892 1222.17 221.187 1221.68 221.68C1208.85 233.273 1202.44 239.872 1202.44 241.475C1202.44 241.722 1205.09 242.955 1210.39 245.175C1215.7 247.272 1218.35 249.307 1218.35 251.28V251.465C1218.1 252.698 1217.98 254.363 1217.98 256.46L1218.9 266.08C1218.9 268.177 1217.98 270.088 1216.13 271.815C1215.51 272.678 1215.2 274.097 1215.2 276.07C1215.2 276.933 1215.76 277.365 1216.87 277.365Z" fill="black"/>
<path d="M320.283 297.96C313.238 292.41 305.714 287.091 300.58 279.614C289.773 266.417 281.448 251.139 275.759 235.082C272.321 224.638 271.134 213.437 266.709 203.401C262.069 196.124 267.503 188.154 275.482 185.826C279.028 185.155 285.287 181.802 277.74 184.199C270.972 189.163 270.317 179.69 277.255 179.096C281.995 178.464 283.73 174.587 282.111 171.102C277.023 167.788 294.444 164.142 285.68 159.201C276.561 149.342 298.453 147.453 293.057 158.63C291.77 167.225 308.35 157.05 304.504 166.978C308.412 171.75 319.15 168.058 318.88 174.756C324.584 175.142 326.535 179.936 331.884 180.306C337.434 182.812 347.471 184.777 349.352 191.021C343.855 195.384 331.129 182.041 330.52 194.089C332.177 211.896 331.753 230.234 338.259 247.185C341.342 257.452 348.82 265.531 355.557 273.532C362.009 281.364 370.75 286.868 379.661 291.516C387.477 295.201 395.903 297.644 404.428 299.178C407.882 296.534 413.987 286.714 419.367 290.853C419.622 295.509 408.668 300.589 418.851 300.072C424.832 298.269 428.98 304.697 433.905 298.901C438.438 304.273 452.76 295.463 449.53 306.455C445.167 309.261 438.8 307.565 434.429 311.434C427.222 307.835 421.479 314.657 413.501 313.793C404.632 315.326 395.645 316.074 386.645 316.029C371.906 314.872 356.852 314.379 342.83 309.245C334.937 306.956 327.236 302.454 320.291 297.96H320.283ZM332.732 303.356C340.441 306.686 347.979 310.201 356.428 311.265C369.841 313.115 383.693 315.998 397.151 313.377C391.062 310.625 384.756 314.456 378.69 311.411C371.413 312.976 363.604 311.011 356.204 310.047C347.787 306.301 338.706 303.726 330.836 298.854C320.992 295.262 335.923 303.464 338.583 304.135C344.734 307.627 331.823 302.339 329.996 300.889C324.846 297.999 324.184 298.6 329.487 301.537C330.558 302.154 331.614 302.816 332.724 303.348L332.732 303.356ZM318.055 292.981C325.532 295.748 318.024 287.723 314.587 288.186C313.076 285.557 308.797 283.892 311.811 282.482C306.385 284.362 306.13 275.313 303.563 276.6C297.828 274.789 301.328 268.352 294.498 264.421C293.874 260.258 287.7 256.651 285.726 250.376C284.855 247.169 278.75 237.942 282.504 246.522C285.695 254.785 291.315 261.862 295.994 268.93C299.617 275.66 303.91 282.697 310.524 286.891C312.76 289.034 314.903 292.31 318.055 292.981V292.981ZM296.526 269.339C296.78 268.213 297.89 271.782 296.526 269.339V269.339ZM327.005 296.295C328.662 295.555 324.615 295.37 327.005 296.295V296.295ZM331.059 297.775C330.643 295.732 329.209 298.916 331.059 297.775V297.775ZM336.147 299.895C338.552 297.582 332.416 298.446 336.147 299.895V299.895ZM344.834 304.751C346.307 302.578 340.132 303.926 344.834 304.751V304.751ZM328.13 293.088C331.884 290.66 323.274 293.058 328.13 293.088V293.088ZM331.938 294.985C331.83 293.705 330.582 295.563 331.938 294.985V294.985ZM350.978 306.871C354.038 308.798 368.862 311.111 359.573 307.665C358.031 307.989 342.383 303.24 350.97 306.871H350.978ZM320.753 283.33C320.445 282.042 316.005 281.903 320.753 283.33V283.33ZM329.618 288.494C331.93 286.875 324.831 287.261 329.618 288.494V288.494ZM337.064 293.065C340.379 291.817 331.699 291.809 337.064 293.065V293.065ZM317.146 279.398C320.738 282.158 331.638 279.753 322.65 277.756C318.564 275.575 309.337 274.087 315.619 279.067L317.146 279.398ZM342.121 294.646C343.609 292.102 335.839 293.181 342.121 294.646V294.646ZM334.536 288.61C343.324 291.1 327.151 283.06 332.37 287.7L333.526 288.224L334.528 288.61H334.536ZM349.745 297.397C358.07 297.475 342.229 296.264 349.745 297.397V297.397ZM313.947 274.58C313.623 273.039 311.896 274.719 313.947 274.58V274.58ZM363.82 305.299C364.036 302.5 361.099 307.38 363.82 305.299V305.299ZM328.13 283.283C327.637 281.811 325.54 283.222 328.13 283.283V283.283ZM314.733 273.617C319.512 273.332 308.196 271.513 314.733 273.617V273.617ZM298.854 263.349C298.26 261.06 293.658 259.233 298.854 263.349V263.349ZM340.533 289.828C339.654 288.826 340.117 290.044 340.533 289.828V289.828ZM366.48 305.746C366.403 304.227 365.069 306.324 366.48 305.746V305.746ZM338.236 287.454C338.698 285.488 334.166 286.86 338.236 287.454V287.454ZM318.919 275.182C322.465 274.796 313.214 272.784 318.919 275.182V275.182ZM351.61 295.509C357.145 293.312 346.214 294.43 351.61 295.509V295.509ZM334.605 283.969C340.98 284.786 327.013 279.63 333.21 283.507L334.605 283.969ZM356.775 297.598C362.733 294.037 360.768 305.938 366.881 298.6C372.908 294.206 361.677 304.05 369.116 299.394C374.481 295.794 382.421 301.09 387.431 302.824C391.039 302.647 394.546 305.946 398.246 303.942C405.361 302.015 384.325 301.09 389.844 297.698C383.33 299.587 378.513 295.432 375.314 291.262C368.006 289.566 359.557 285.842 355.911 279.375C354.431 276.947 358.07 279.714 354.632 275.752C350.238 271.836 348.033 267.389 345.073 262.632C341.551 260.752 341.142 255.209 340.78 262.447C340.811 257.876 336.517 254.801 335.476 256.08C335.461 251.679 340.063 253.883 336.833 250.63C336.139 246.067 333.858 241.303 333.172 236.162C332.108 233.68 333.017 228.368 329.525 233.988C328.254 239.923 329.101 226.688 331.083 231.059C333.68 226.588 330.158 227.127 330.003 227.744C331.699 223.982 331.083 218.648 329.564 220.683C330.466 216.698 330.99 206.022 328.215 207.918C329.895 203.755 331.406 188.855 324.099 194.536C321.139 194.575 316.02 195.615 313.592 196.818C321.193 201.003 312.821 198.329 309.738 197.666C309.337 201.535 306.269 199.863 302.446 199.901C308.559 200.657 299.47 206.145 295.963 204.017C291.415 206.191 299.894 211.626 296.055 213.306C296.518 215.835 289.079 212.381 289.657 218.24C285.241 216.382 289.056 225.177 291.269 222.202C298.784 224.237 296.557 228.877 296.742 233.279C295.524 235.846 290.698 227.243 295.662 227.644C291.754 221.269 291.338 225.331 288.077 228.299C287.306 228.515 296.395 232.516 290.698 234.489C295.709 235.26 295.847 239.654 296.865 242.429C299.871 245.566 299.254 238.96 302.87 242.737C300.588 239.376 290.791 233.271 298.676 235.229C298.638 231.837 297.25 229.116 299.671 229.186C302.06 224.853 297.165 239.877 302.561 234.366C304.049 233.71 304.411 230.026 307.109 234.712C311.002 238.551 308.512 241.326 303.016 237.819C303.995 241.157 310.37 242.344 309.175 247.57C310.447 252.157 312.22 250.469 313.769 250.206C314.987 254.662 315.673 251.386 315.735 249.258C321.285 250.453 319.99 253.729 321.732 256.042C325.563 257.768 316.244 244.309 322.827 251.987C329.749 258.231 325.425 260.852 319.204 259.85C323.135 259.534 324.407 265.168 329.325 264.968C333.811 267.103 336.841 275.297 329.117 271.883C326.434 269.47 316.938 266.487 324.7 271.081C331.861 274.395 337.535 276.384 344.441 280.539C349.375 284.07 351.518 288.109 353.383 288.91C349.236 290.892 340.872 287.323 347.085 286.228C343.208 285.526 338.853 283.569 342.56 288.386C345.721 291.03 353.738 290.745 355.179 291.046C353.953 293.728 351.864 293.944 355.225 294.152C351.479 296.156 356.428 296.465 356.775 297.606V297.598ZM349.113 275.953C346.831 273.563 346.237 269.092 348.704 272.985C349.968 273.494 352.751 280.285 349.113 275.953ZM374.072 291.809C375.499 291.724 374.119 292.888 374.072 291.809V291.809ZM345.505 270.102C345.428 266.494 346.33 272.877 345.505 270.102V270.102ZM343.023 266.764C340.155 261.214 346.646 268.337 343.023 266.764V266.764ZM312.96 246.013C314.648 245.551 313.793 248.896 312.96 246.013V246.013ZM336.887 258.979C337.92 255.094 338.105 262.247 336.887 258.979V258.979ZM319.99 247.223C318.795 245.08 322.48 249.227 319.99 247.223V247.223ZM334.497 251.879C331.784 245.789 336.425 248.549 335.099 252.881L334.497 251.879ZM309.476 235.19C308.258 233.186 306.254 227.328 306.901 225.539C307.487 228.453 313.099 238.081 309.653 229.532C305.845 222.364 314.201 231.86 315.064 233.649C315.45 235.422 312.713 233.163 314.571 237.333C311.179 232.577 312.567 239.954 309.476 235.19ZM301.744 229.864C302.053 225.216 303.517 233.047 301.744 229.864V229.864ZM305.213 231.059C306.878 227.551 308.034 235.946 305.213 231.059V231.059ZM296.857 224.584C293.974 221.731 291.893 219.087 296.988 222.811C298.954 222.888 292.625 216.813 297.451 220.884C302.538 221.809 299.971 229.224 296.857 224.584ZM301.251 224.468C302.924 222.811 302.137 226.102 301.251 224.468V224.468ZM303.949 225.339C301.421 220.583 307.032 227.328 303.949 225.339V225.339ZM298.576 220.197C290.205 212.751 309.098 224.098 299.941 221.585L298.576 220.197ZM322.549 234.134C318.926 231.961 321.601 218.841 322.835 227.813C326.357 226.673 322.642 232.438 325.263 232.392C324.854 236.038 323.675 237.349 322.565 234.134H322.549ZM331.414 239.376C331.784 235.422 332.177 242.074 331.414 239.376V239.376ZM329.872 237.85C330.289 236.154 329.926 239.839 329.872 237.85V237.85ZM300.226 217.754C294.853 210.331 315.851 225.254 303.671 219.635C302.4 219.303 300.866 219.172 300.226 217.754ZM317.308 226.811C316.799 220.567 318.441 227.844 317.308 226.811V226.811ZM330.273 235.129C331.275 231.567 330.35 237.48 330.273 235.129V235.129ZM301.043 214.917C304.242 214.239 314.286 220.537 305.051 216.721C304.034 215.58 301.844 216.104 301.043 214.917ZM328.485 228.6C328.824 222.202 330.397 224.784 328.5 229.509L328.485 228.6ZM303.425 212.697C304.727 210.785 299.956 204.064 304.111 210.284C305.899 211.71 309.291 212.674 306.292 213.268C310.994 217.422 305.136 214.393 303.425 212.697V212.697ZM327.128 226.603C328.03 219.326 327.922 230.866 327.128 226.603V226.603ZM300.704 205.975C301.698 205.551 301.228 207.301 300.704 205.975V205.975ZM306.886 209.66C308.474 206.315 309.815 213.383 306.886 209.66V209.66ZM324.33 219.365C324.315 218.078 324.661 221.23 324.33 219.365V219.365ZM323.32 217.13C320.9 211.148 325.571 220.29 323.32 217.13V217.13ZM321.832 213.198C321.424 210.732 323.22 216.312 321.832 213.198V213.198ZM324.253 209.267C322.588 206.338 326.35 196.371 326.766 202.561C325.016 207.378 326.265 210.076 327.483 203.609C329.741 198.521 326.997 213.653 324.245 209.275L324.253 209.267ZM326.735 194.444C327.46 193.557 326.889 195.515 326.735 194.444V194.444ZM322.58 276.253C321.593 275.398 322.704 276.793 322.58 276.253V276.253ZM331.137 280.57C335.877 281.803 335.854 279.838 331.56 279.26C329.248 277.101 321.956 274.827 328.477 278.99C328.916 280.084 330.289 280.061 331.129 280.578L331.137 280.57ZM314.247 269.362C316.868 271.312 324.114 274.904 317.978 270.102C320.052 267.697 314.016 266.417 316.02 264.814C310.933 261.7 312.012 261.977 315.573 262.07C309.453 259.341 316.452 259.541 316.113 258.138C313.762 257.676 304.396 253.976 309.915 258.447C304.319 255.595 308.582 259.51 306.894 259.094C301.166 257.537 311.981 263.45 305.984 261.985C309.26 264.583 314.818 268.645 307.371 264.737C306.385 266.147 312.69 268.283 314.247 269.362V269.362ZM323.189 274.503C334.058 278.003 317.863 270.218 323.189 274.503V274.503ZM368.977 302.238C369.131 300.08 367.489 304.088 368.977 302.238V302.238ZM373.687 304.219C376.192 301.791 373.787 308.097 377.85 303.626C377.888 300.427 377.719 298.538 373.178 302.423C371.93 303.117 371.375 306.069 373.687 304.219ZM298.977 257.298C298.206 254.269 293.581 254.292 298.977 257.298V257.298ZM304.003 260.597C302.137 257.499 297.343 257.792 304.003 260.597V260.597ZM332.601 277.841C335.392 280.308 345.413 279.66 335.993 278.149C334.59 276.068 327.12 276.577 332.601 277.841ZM371.891 302.115C376.192 298.507 367.728 303.718 371.891 302.115V302.115ZM380.833 308.251C380.856 307.095 378.983 308.76 380.833 308.251V308.251ZM380.84 306.632C385.597 301.591 376.231 306.933 380.84 306.632V306.632ZM286.62 246.953C282.566 241.172 284.1 238.567 280.184 233.849C279.444 230.226 273.477 222.032 277.1 230.719C280.415 235.799 281.402 243.662 286.62 246.953V246.953ZM379.353 305.029C388.102 299.371 375.761 302.562 379.353 305.029V305.029ZM386.028 307.65C390.422 303.888 383.253 306.863 386.028 307.65V307.65ZM297.489 250.9C298.746 249.035 294.252 250.661 297.489 250.9V250.9ZM384.633 305.854C388.88 303.117 383.662 303.541 383.862 306.1L384.633 305.854ZM327.051 269.547C326.897 267.697 324.808 269.701 327.051 269.547V269.547ZM330.597 271.605C329.479 269.316 328.87 271.967 330.597 271.605V271.605ZM391.447 307.711C396.882 303.78 388.148 306.956 390.306 308.451L391.447 307.711ZM389.366 306.709C393.791 302.994 384.687 308.351 389.366 306.709V306.709ZM400.004 313.786C402.979 311.797 396.388 313.146 400.004 313.786V313.786ZM300.226 249.551C304.211 250.445 316.151 259.372 309.106 250.168C305.498 249.104 307.664 240.278 303.98 241.843C306.446 245.967 306.015 247.724 300.819 245.127C294.306 241.943 297.165 246.699 298.43 248.01C296.703 248.41 300.734 249.52 300.226 249.551ZM282.065 235.214C282.774 232.261 275.489 218.972 278.627 228.553C279.752 230.558 279.629 234.366 282.065 235.214ZM315.396 255.764C313.345 254.045 315.296 255.518 315.396 255.764V255.764ZM320.453 256.936C320.453 253.814 314.864 255.672 320.453 256.936V256.936ZM364.244 284.555C363.412 282.412 360.945 284.509 364.244 284.555V284.555ZM366.349 286.089C366.04 284.894 365.138 286.32 366.349 286.089V286.089ZM383.708 297.035C385.373 295.802 381.627 296.881 383.708 297.035V297.035ZM291.13 237.526C295.909 235.676 286.011 236.216 291.13 237.526V237.526ZM360.382 281.171C360.328 278.08 357.337 281.942 360.382 281.171V281.171ZM289.234 233.14C292.309 232.099 286.405 232.446 289.234 233.14V233.14ZM298.144 237.457C298.09 236.431 297.204 237.842 298.144 237.457V237.457ZM406.756 304.058C410.703 303.256 419.691 306.062 421.14 303.009C416.361 302.894 404.567 299.633 404.012 303.78L405.06 303.957L406.756 304.058V304.058ZM300.973 238.166C301.043 235.029 298.53 238.05 300.973 238.166V238.166ZM277.563 221.916C276.499 215.942 273.516 221.007 277.563 221.916V221.916ZM283.144 223.319C283.213 221.392 278.033 221.593 283.144 223.319V223.319ZM286.335 224.884C285.41 224.136 285.611 225.825 286.335 224.884V224.884ZM306.416 237.757C307.356 236.894 304.18 237.117 306.416 237.757V237.757ZM284.215 221.354C283.676 216.844 277.74 220.675 284.215 221.354V221.354ZM272.761 213.923C272.606 211.842 271.651 214.709 272.761 213.923V213.923ZM274.456 212.636C274.187 210.169 272.992 212.944 274.456 212.636V212.636ZM283.861 218.255C287.854 216.69 276.615 215.017 283.059 217.947L283.861 218.255ZM409.77 296.025C412.314 293.69 406.533 295.301 409.77 296.025V296.025ZM424.987 303.911C426.004 300.889 422.412 304.296 424.987 303.911V303.911ZM284.832 213.322C285.256 210.392 281.672 213.9 284.832 213.322V213.322ZM271.45 204.364C270.733 200.24 270.833 193.002 277.709 195.453C268.529 197.273 284.061 206.862 282.103 199.292C285.957 199.477 289.657 197.011 287.622 200.757C295.231 199.909 300.496 193.326 307.849 194.243C313.569 193.488 319.828 192.917 325.995 190.613C331.067 190.243 335.939 184.785 333.164 181.555C326.257 180.969 319.019 181.833 311.372 183.351C302.908 185.109 295.215 188.454 286.667 189.896C278.341 191.013 288.339 192.979 285.957 193.411C281.61 194.922 291.137 195.939 285.395 197.527C281.849 196.849 278.149 195.631 279.667 191.9C271.689 192.925 264.674 196.24 270.98 204.357H271.442L271.45 204.364ZM290.675 194.575C292.548 187.683 300.696 200.24 293.743 195.484C292.91 194.868 291.546 194.359 290.675 194.559V194.575ZM291.037 191.229C293.735 189.225 292.471 192.355 291.037 191.229V191.229ZM294.468 191.291C294.714 188.123 302.315 192.971 295.724 192.432L294.468 191.291ZM299.154 189.402C300.866 187.398 299.648 191.175 299.154 189.402V189.402ZM300.357 188.601C303.209 185.178 316.506 186.419 306.77 188.269C304.165 186.304 302.161 189.425 300.357 188.601ZM317.701 185.926C317.277 176.568 326.326 189.256 317.701 185.926V185.926ZM322.634 185.895C324.43 181.177 329.618 184.006 323.467 184.947C323.598 185.448 323.282 187.383 322.634 185.895ZM282.897 210.909C288.27 207.617 277.185 208.057 282.897 210.909V210.909ZM286.867 212.019C288.756 210.015 282.774 211.202 286.867 212.019V212.019ZM275.15 203.694C278.226 201.343 271.52 202.8 275.15 203.694V203.694ZM433.959 303.055C434.052 300.319 431.616 304.289 433.959 303.055V303.055ZM417.826 292.032C418.288 288.887 415.744 292.318 417.826 292.032V292.032ZM438.407 304.119C442.701 304.119 451.419 302.786 442.069 302.786C440.604 303.017 433.52 302.971 438.399 304.119H438.407ZM290.359 210.076C293.828 209.845 295.801 206.245 289.688 206.453C280.207 205.474 298.044 209.691 288.47 208.488C287.183 209.336 290.29 210.315 290.359 210.084V210.076ZM293.427 211.633C293.057 209.398 292.348 212.821 293.427 211.633V211.633ZM297.05 201.944C298.568 200.071 294.969 201.443 297.05 201.944V201.944ZM285.487 182.611C291.7 180.499 300.187 178.133 303.116 183.652C300.133 180.06 301.914 176.529 304.735 181.779C308.713 187.09 310.709 179.366 308.111 177.578C311.064 181.247 314.425 182.973 310.093 177.809C314.795 172.151 300.665 178.557 297.451 178.487C295.909 179.181 281.487 182.164 285.495 182.611H285.487ZM289.126 175.65C292.671 172.976 301.367 177.238 295.786 172.991C295.246 172.513 283.56 176.213 289.126 175.65ZM302.029 176.182C306.177 176.283 300.249 170.617 305.182 173.176C304.373 170.532 299.432 170.039 297.011 168.983C295.655 171.403 299.786 176.213 302.022 176.182H302.029ZM291.392 164.466C292.826 162.523 288.879 165.452 291.392 164.466V164.466ZM296.664 165.73C303.34 164.843 294.969 162.854 295.323 165.653L296.664 165.73ZM286.821 158.021C282.119 151.885 295.655 159.054 290.883 152.625C286.859 149.426 282.997 156.233 286.821 158.021ZM347.132 190.512C349.29 186.689 338.228 185.363 345.682 189.163C346.376 189.395 346.222 190.782 347.132 190.512Z" fill="black"/>
</svg>
